<?xml version="1.0" encoding="utf-8"?>
<!-- Generator: Adobe Illustrator 27.5.0, SVG Export Plug-In . SVG Version: 6.00 Build 0)  -->
<svg version="1.1" xmlns="http://www.w3.org/2000/svg" xmlns:xlink="http://www.w3.org/1999/xlink" x="0px" y="0px"
	 viewBox="0 0 500 500" style="enable-background:new 0 0 500 500;" xml:space="preserve">
<g id="BACKGROUND">
	<rect style="fill:#FFFFFF;" width="500" height="500"/>
</g>
<g id="OBJECTS">
	<g>
		<path style="fill:#FADDD4;" d="M447.516,125.457c-3.562-6.639-7.498-13.086-11.807-19.299
			c-9.49-13.683-20.725-26.303-34.188-36.103c-73.438-53.451-151.713,2.732-221.964,29.455c-25.631,9.75-52.818,15.21-77.934,26.218
			C51.846,147.546,29.888,191.95,27.373,244.58c-2.639,55.216,12.311,113.02,51.344,153.671
			c46.608,48.54,124.293,56.949,188.585,53.153c86.325-5.097,156.377-58.533,189.192-138.304
			C481.116,253.245,478.007,182.286,447.516,125.457z"/>
		<g>
			<path style="fill:#EBAEAE;" d="M247.862,127.978c0.473-2.538,2.914-4.212,5.452-3.739c0.223,0.042,0.429,0.116,0.638,0.187
				c0.057-1.891-0.077-3.756-0.387-5.573c-0.195,0.102-0.387,0.207-0.601,0.283c-2.434,0.859-5.104-0.418-5.964-2.852
				c-0.859-2.434,0.418-5.104,2.852-5.964c0.232-0.082,0.466-0.127,0.7-0.171c-0.894-1.652-1.947-3.215-3.148-4.659
				c-0.124,0.2-0.249,0.401-0.407,0.585c-1.679,1.961-4.629,2.19-6.59,0.512c-1.961-1.678-2.19-4.629-0.512-6.591
				c0.17-0.198,0.36-0.366,0.554-0.529c-1.589-0.976-3.289-1.802-5.086-2.457c-0.007,0.244-0.016,0.489-0.062,0.737
				c-0.473,2.538-2.914,4.211-5.452,3.739c-2.538-0.473-4.212-2.914-3.739-5.451c0.048-0.259,0.13-0.502,0.217-0.742
				c-1.913-0.049-3.799,0.098-5.635,0.423c0.116,0.214,0.231,0.431,0.315,0.668c0.859,2.434-0.418,5.104-2.852,5.963
				c-2.434,0.86-5.104-0.418-5.964-2.852c-0.084-0.239-0.131-0.48-0.176-0.722c-1.647,0.904-3.202,1.97-4.639,3.18
				c0.195,0.122,0.391,0.243,0.57,0.396c1.961,1.679,2.191,4.629,0.512,6.59c-1.678,1.961-4.629,2.19-6.59,0.512
				c-0.179-0.153-0.327-0.327-0.477-0.5c-0.954,1.577-1.761,3.262-2.401,5.041c0.209,0.011,0.418,0.013,0.63,0.053
				c2.538,0.473,4.212,2.914,3.739,5.452c-0.473,2.538-2.914,4.212-5.452,3.739c-0.207-0.039-0.398-0.11-0.593-0.174
				c-0.039,1.873,0.109,3.719,0.43,5.518c0.169-0.083,0.33-0.177,0.512-0.241c2.434-0.859,5.104,0.417,5.964,2.852
				c0.859,2.434-0.418,5.104-2.852,5.964c-0.179,0.063-0.36,0.091-0.541,0.131c0.887,1.607,1.927,3.124,3.105,4.531
				c0.095-0.14,0.177-0.286,0.29-0.417c1.678-1.961,4.629-2.19,6.59-0.512c1.961,1.678,2.19,4.629,0.512,6.59
				c-0.115,0.134-0.249,0.24-0.375,0.358c1.544,0.936,3.192,1.73,4.93,2.365c0.013-0.158,0.01-0.315,0.04-0.475
				c0.473-2.538,2.914-4.211,5.452-3.738c2.538,0.473,4.212,2.914,3.739,5.451c-0.032,0.171-0.094,0.326-0.143,0.489
				c1.851,0.046,3.677-0.088,5.456-0.394c-0.07-0.148-0.153-0.287-0.209-0.445c-0.859-2.434,0.418-5.104,2.852-5.964
				c2.435-0.859,5.104,0.418,5.964,2.852c0.061,0.172,0.087,0.346,0.126,0.519c1.611-0.877,3.135-1.906,4.548-3.075
				c-0.144-0.098-0.294-0.183-0.43-0.299c-1.961-1.679-2.19-4.629-0.512-6.591c1.678-1.961,4.629-2.19,6.59-0.512
				c0.154,0.132,0.278,0.283,0.41,0.429c0.958-1.556,1.771-3.219,2.421-4.975c-0.194-0.012-0.387-0.012-0.582-0.049
				C249.063,132.956,247.389,130.516,247.862,127.978z M238.916,129.528c-3.262,7.325-11.876,10.63-19.201,7.367
				c-7.325-3.262-10.63-11.875-7.368-19.2c3.262-7.325,11.876-10.631,19.201-7.369C238.873,113.589,242.179,122.203,238.916,129.528
				z"/>
			<path style="fill:none;stroke:#222221;stroke-width:0.5;stroke-miterlimit:10;" d="M235.826,123.612
				c0,5.628-4.562,10.19-10.19,10.19c-5.628,0-10.19-4.562-10.19-10.19c0-5.628,4.562-10.19,10.19-10.19
				C231.264,113.422,235.826,117.984,235.826,123.612z"/>
			
				<ellipse transform="matrix(0.8656 -0.5008 0.5008 0.8656 -31.5712 129.6062)" style="fill:none;stroke:#222221;stroke-width:0.5;stroke-miterlimit:10;" cx="225.636" cy="123.612" rx="18.507" ry="18.507"/>
		</g>
		<g>
			<path style="fill:#EBAEAE;" d="M84.871,192.822c0.333-1.786,2.051-2.964,3.837-2.631c0.157,0.029,0.302,0.082,0.449,0.131
				c0.04-1.331-0.054-2.643-0.272-3.922c-0.137,0.071-0.273,0.146-0.423,0.199c-1.713,0.605-3.592-0.294-4.197-2.007
				c-0.605-1.713,0.294-3.592,2.007-4.197c0.163-0.058,0.328-0.089,0.493-0.12c-0.629-1.163-1.37-2.263-2.216-3.279
				c-0.088,0.141-0.175,0.282-0.286,0.412c-1.181,1.38-3.258,1.542-4.638,0.36c-1.381-1.181-1.542-3.258-0.36-4.639
				c0.119-0.14,0.254-0.258,0.39-0.372c-1.118-0.687-2.315-1.268-3.58-1.729c-0.005,0.172-0.011,0.345-0.044,0.519
				c-0.333,1.786-2.051,2.964-3.837,2.631c-1.786-0.333-2.965-2.051-2.631-3.837c0.034-0.182,0.091-0.354,0.153-0.522
				c-1.347-0.034-2.674,0.069-3.966,0.298c0.082,0.151,0.162,0.303,0.221,0.47c0.605,1.713-0.294,3.593-2.007,4.197
				c-1.713,0.605-3.592-0.294-4.197-2.007c-0.059-0.168-0.092-0.338-0.124-0.508c-1.159,0.636-2.253,1.386-3.265,2.238
				c0.137,0.086,0.275,0.171,0.401,0.279c1.38,1.182,1.542,3.258,0.36,4.639c-1.181,1.381-3.258,1.542-4.638,0.36
				c-0.126-0.108-0.23-0.23-0.336-0.352c-0.671,1.11-1.239,2.296-1.69,3.548c0.147,0.007,0.294,0.009,0.443,0.037
				c1.786,0.333,2.964,2.051,2.631,3.837c-0.333,1.786-2.051,2.964-3.837,2.631c-0.146-0.027-0.28-0.077-0.417-0.122
				c-0.027,1.318,0.076,2.618,0.302,3.884c0.119-0.059,0.233-0.124,0.361-0.169c1.713-0.605,3.592,0.294,4.197,2.007
				c0.605,1.713-0.294,3.593-2.007,4.197c-0.126,0.044-0.253,0.064-0.381,0.092c0.624,1.131,1.356,2.199,2.186,3.189
				c0.067-0.098,0.125-0.201,0.204-0.294c1.181-1.38,3.258-1.542,4.639-0.36c1.38,1.181,1.542,3.258,0.36,4.639
				c-0.081,0.094-0.175,0.169-0.264,0.252c1.086,0.659,2.247,1.217,3.47,1.665c0.009-0.111,0.007-0.222,0.028-0.334
				c0.333-1.786,2.051-2.964,3.837-2.631c1.786,0.333,2.964,2.051,2.631,3.837c-0.023,0.12-0.066,0.23-0.101,0.344
				c1.303,0.032,2.588-0.062,3.84-0.277c-0.05-0.104-0.108-0.202-0.147-0.313c-0.605-1.713,0.294-3.592,2.007-4.197
				c1.714-0.605,3.593,0.294,4.197,2.007c0.043,0.121,0.061,0.244,0.089,0.366c1.134-0.617,2.207-1.342,3.201-2.165
				c-0.101-0.069-0.207-0.129-0.302-0.21c-1.38-1.181-1.542-3.258-0.36-4.639c1.181-1.38,3.258-1.542,4.638-0.36
				c0.108,0.093,0.196,0.199,0.289,0.302c0.674-1.095,1.246-2.266,1.704-3.502c-0.137-0.008-0.272-0.009-0.41-0.034
				C85.717,196.326,84.539,194.608,84.871,192.822z M78.575,193.913c-2.296,5.156-8.358,7.482-13.514,5.185
				c-5.156-2.296-7.482-8.358-5.186-13.514c2.296-5.156,8.358-7.482,13.514-5.186C78.545,182.694,80.871,188.757,78.575,193.913z"/>
			<circle style="fill:none;stroke:#222221;stroke-width:0.5;stroke-miterlimit:10;" cx="69.228" cy="189.749" r="7.172"/>
			
				<ellipse transform="matrix(0.9239 -0.3827 0.3827 0.9239 -67.3441 40.9363)" style="fill:none;stroke:#222221;stroke-width:0.5;stroke-miterlimit:10;" cx="69.228" cy="189.749" rx="13.026" ry="13.026"/>
		</g>
		<g>
			<path style="fill:#EBAEAE;" d="M83.803,248.105c0.49-2.629,3.019-4.364,5.648-3.873c0.231,0.043,0.445,0.12,0.661,0.193
				c0.059-1.959-0.08-3.891-0.401-5.774c-0.202,0.105-0.401,0.215-0.622,0.293c-2.522,0.89-5.288-0.433-6.179-2.955
				c-0.89-2.522,0.433-5.288,2.955-6.178c0.24-0.085,0.483-0.131,0.725-0.177c-0.926-1.712-2.017-3.331-3.262-4.827
				c-0.129,0.207-0.257,0.415-0.421,0.606c-1.739,2.032-4.796,2.269-6.828,0.53c-2.032-1.739-2.269-4.796-0.53-6.828
				c0.176-0.205,0.373-0.38,0.574-0.548c-1.646-1.011-3.408-1.867-5.27-2.546c-0.007,0.253-0.016,0.507-0.064,0.764
				c-0.49,2.629-3.019,4.363-5.648,3.873c-2.629-0.49-4.364-3.019-3.873-5.648c0.05-0.268,0.134-0.52,0.225-0.769
				c-1.982-0.051-3.936,0.101-5.838,0.438c0.12,0.222,0.239,0.446,0.326,0.692c0.89,2.522-0.433,5.288-2.955,6.178
				c-2.522,0.891-5.288-0.433-6.179-2.955c-0.087-0.247-0.136-0.498-0.182-0.748c-1.707,0.937-3.317,2.041-4.806,3.295
				c0.202,0.126,0.405,0.251,0.591,0.411c2.032,1.739,2.27,4.796,0.53,6.828c-1.739,2.032-4.796,2.269-6.828,0.53
				c-0.185-0.159-0.339-0.339-0.495-0.518c-0.988,1.634-1.824,3.38-2.487,5.223c0.217,0.011,0.433,0.014,0.652,0.055
				c2.629,0.49,4.363,3.019,3.873,5.648c-0.49,2.629-3.019,4.363-5.648,3.873c-0.215-0.04-0.412-0.114-0.614-0.18
				c-0.04,1.941,0.113,3.853,0.445,5.717c0.175-0.087,0.342-0.183,0.531-0.25c2.522-0.89,5.288,0.432,6.178,2.955
				c0.89,2.522-0.433,5.288-2.955,6.179c-0.185,0.065-0.373,0.094-0.56,0.136c0.919,1.664,1.996,3.237,3.217,4.694
				c0.099-0.145,0.184-0.296,0.301-0.432c1.739-2.032,4.796-2.269,6.828-0.53c2.032,1.739,2.27,4.796,0.53,6.828
				c-0.119,0.139-0.258,0.249-0.389,0.371c1.599,0.97,3.307,1.792,5.108,2.45c0.014-0.164,0.01-0.326,0.042-0.492
				c0.49-2.629,3.019-4.363,5.648-3.873s4.363,3.019,3.873,5.648c-0.033,0.177-0.097,0.338-0.148,0.507
				c1.918,0.048,3.809-0.091,5.652-0.408c-0.073-0.153-0.159-0.297-0.217-0.461c-0.89-2.522,0.433-5.288,2.955-6.178
				c2.522-0.89,5.288,0.433,6.178,2.954c0.063,0.178,0.09,0.359,0.131,0.538c1.669-0.908,3.248-1.975,4.712-3.186
				c-0.149-0.101-0.304-0.189-0.445-0.309c-2.032-1.739-2.269-4.796-0.53-6.828c1.739-2.032,4.796-2.269,6.828-0.53
				c0.159,0.136,0.288,0.293,0.425,0.445c0.992-1.612,1.835-3.335,2.509-5.154c-0.201-0.012-0.401-0.013-0.603-0.051
				C85.047,253.263,83.313,250.735,83.803,248.105z M74.535,249.711c-3.38,7.589-12.303,11.013-19.892,7.633
				c-7.589-3.38-11.013-12.303-7.633-19.892c3.38-7.589,12.304-11.014,19.892-7.634C74.491,233.198,77.915,242.123,74.535,249.711z"
				/>
			<circle style="fill:none;stroke:#222221;stroke-width:0.5;stroke-miterlimit:10;" cx="60.776" cy="243.582" r="10.557"/>
			<circle style="fill:none;stroke:#222221;stroke-width:0.5;stroke-miterlimit:10;" cx="60.776" cy="243.582" r="19.174"/>
		</g>
		<g>
			<path style="fill:none;stroke:#222221;stroke-width:0.5;stroke-miterlimit:10;" d="M242.239,76.365c0,0,5.809,7.101,12.974,7.101
				c7.165,0,12.974-7.101,12.974-7.101s-5.809-7.1-12.974-7.1C248.047,69.265,242.239,76.365,242.239,76.365z"/>
			<path style="fill:#222221;" d="M249.953,76.365c0,3.922,2.355,7.101,5.26,7.101c2.905,0,5.26-3.179,5.26-7.101
				c0-3.921-2.355-7.1-5.26-7.1C252.308,69.265,249.953,72.444,249.953,76.365z"/>
		</g>
		<g>
			<polygon style="fill:#E0ADAD;" points="289.8,257.766 253.532,257.354 272.96,281.4 281.236,268.075 284.964,272.732 
				285.171,263.043 			"/>
			<g>
				<defs>
					<polygon id="SVGID_1_" points="289.8,257.766 253.532,257.354 271.18,281.51 281.236,268.075 284.964,272.732 285.171,263.043 
											"/>
				</defs>
				<clipPath id="SVGID_00000095308304778955038280000004475572975418976695_">
					<use xlink:href="#SVGID_1_"  style="overflow:visible;"/>
				</clipPath>
				<polygon style="clip-path:url(#SVGID_00000095308304778955038280000004475572975418976695_);" points="259.473,260.188 
					281.236,268.075 284.275,277.393 289.529,272.415 285.171,263.043 				"/>
			</g>
		</g>
		<g>
			<polygon style="fill:#E0ADAD;" points="419.612,165.244 451.237,164.885 434.296,185.852 427.079,174.233 423.829,178.294 
				423.648,169.845 			"/>
			<g>
				<defs>
					<polygon id="SVGID_00000092419956428970154560000013169937370018653582_" points="419.612,165.244 451.237,164.885 
						435.848,185.949 427.079,174.233 423.829,178.294 423.648,169.845 					"/>
				</defs>
				<clipPath id="SVGID_00000156583115645923504110000003592945945561502133_">
					<use xlink:href="#SVGID_00000092419956428970154560000013169937370018653582_"  style="overflow:visible;"/>
				</clipPath>
				<polygon style="clip-path:url(#SVGID_00000156583115645923504110000003592945945561502133_);" points="446.057,167.356 
					427.079,174.233 424.429,182.359 419.848,178.017 423.648,169.845 				"/>
			</g>
		</g>
		<g>
			<g>
				<g>
					<g>
						
							<line style="fill:none;stroke:#E0ADAD;stroke-width:2;stroke-miterlimit:10;" x1="389.188" y1="297.432" x2="389.188" y2="375.736"/>
						<polyline style="fill:none;stroke:#E0ADAD;stroke-width:2;stroke-miterlimit:10;" points="370.027,389.593 389.188,374.547 
							410.846,389.593 						"/>
						<polyline style="fill:none;stroke:#E0ADAD;stroke-width:2;stroke-miterlimit:10;" points="341.918,387.309 389.404,374.202 
							435.377,387.309 						"/>
						<path style="fill:#222221;" d="M347.658,387.546c0,2.62-2.124,4.744-4.744,4.744c-2.62,0-4.744-2.124-4.744-4.744
							c0-2.62,2.124-4.744,4.744-4.744C345.534,382.802,347.658,384.926,347.658,387.546z"/>
						<path style="fill:#222221;" d="M435.862,387.546c0,2.62-2.124,4.744-4.744,4.744c-2.62,0-4.744-2.124-4.744-4.744
							c0-2.62,2.124-4.744,4.744-4.744C433.738,382.802,435.862,384.926,435.862,387.546z"/>
						<path style="fill:#222221;" d="M413.563,389.337c0,2.62-2.124,4.744-4.744,4.744c-2.62,0-4.744-2.124-4.744-4.744
							c0-2.62,2.124-4.744,4.744-4.744C411.439,384.593,413.563,386.717,413.563,389.337z"/>
						<path style="fill:#222221;" d="M373.933,390.406c0,2.62-2.124,4.744-4.744,4.744c-2.62,0-4.744-2.124-4.744-4.744
							c0-2.62,2.124-4.744,4.744-4.744C371.809,385.662,373.933,387.786,373.933,390.406z"/>
					</g>
					<path style="fill:#F65E59;stroke:#000000;stroke-width:0.5;stroke-miterlimit:10;" d="M332.238,304.824
						c-1.316-2.066-2.284-4.24-2.771-6.491c-2.649-12.235,11.03-26.962,20.71-32.061c8.764-4.616,19.663-2.74,28.867-6.401
						c16.582-6.596,26.624-20.01,36.953-33.804c5.194-6.936,9.703-9.905,18.332-7.257c7.227,2.217,13.466,7.615,17.164,14.15
						c5.543,9.796,6.151,21.714,4.43,32.838c-3.949,25.525-21.048,49.651-45.489,58.003c-6.612,2.259-13.332,3.228-20.312,3.159
						c-11.589-0.116-23.381-0.741-34.278-4.687C348.028,319.441,337.429,312.974,332.238,304.824z"/>
					<path style="fill:#222221;" d="M261.384,333.251c0.081-0.099,2.735,2.301,3.451,2.093c0.582-0.169,1.039-0.611,1.47-1.036
						c3.3-3.259,6.6-6.518,9.899-9.777c-0.965-0.429-2.435,0.589-3.648,0.443c-1.382-0.167-2.738-0.733-4.011-1.266
						c-2.335-0.979-4.622-2.546-7.089-3.163c-5.107-1.277-10.213-2.555-15.319-3.832c-4.916-1.23-5.457,2.753-2.327,5.99
						c1.837,1.9,4.941,3.389,6.377,4.032c4.304,1.929,9.039,2.904,13.757,2.792C263.204,330.84,262.343,332.086,261.384,333.251z"/>
					<path style="fill:#222221;" d="M293.425,386.685c0.251,1.299-0.017,2.929-0.103,4.321c1.453-0.159,2.913-0.262,4.374-0.319
						c0.03-0.083,0.055-0.158,0.095-0.256c0.607-1.496,0.982-3.141,1.435-4.688c0.526-1.794,1.045-3.595,1.472-5.416
						c0.174-0.745,0.8-2.33,0.441-3.092c-1.046-2.218-4.08-1.577-5.933-1.023c-4.446,1.329-7.84,3.467-11.664,5.988
						c-2.911,1.919-6.41,2.735-9.867,3.195c-0.864,0.115-1.757,0.218-2.517,0.646c-0.708,0.398-1.277,1.162-1.229,1.959
						c0.003,0.058,0.01,0.116,0.02,0.175c0.138,0.785,0.837,1.345,1.545,1.713c2.94,1.527,7.48,1.543,10.67,1.03
						c2.08-0.334,4.123-0.897,6.08-1.679C290.008,388.533,292.005,388.009,293.425,386.685z"/>
					<path style="fill:#FFFFFF;stroke:#222221;stroke-width:0.5;stroke-miterlimit:10;" d="M341.326,248.983
						c-6.92-2.222-14.857-2.789-20.729,1.029c-5.662,3.682-10.307,9.642-14.396,14.929c-5.025,6.496-9.773,13.208-14.225,20.109
						c-5.182,8.033-9.966,16.328-15.505,24.128c-2.301,3.24-4.647,7.271-8.092,9.295c-4.257,2.502-8.503,1.418-13.076,0.569
						c-0.613-0.114-1.332-0.19-1.783,0.241c-0.561,0.537-0.324,1.49,0.103,2.138c0.859,1.301,2.265,2.129,3.679,2.786
						c4.099,1.904,8.691,2.712,13.195,2.361c4.579-0.356,7.78-3.858,11.119-6.763c13.188-11.472,27.117-22.091,41.672-31.769
						c1.017-0.676,2.07-1.362,3.267-1.605c1.601-0.325,3.242,0.179,4.793,0.691c7.368,2.433,14.968,4.338,22.609,5.671
						c6.759,1.18,14.145,2.237,20.946,0.781c2.596-0.556,6.035-1.597,6.815-4.465c0.911-3.351,0.337-8.678-0.906-11.791
						c-1.873-4.687-5.977-8.067-10.037-11.065c-6.948-5.131-14.274-9.659-21.826-13.851
						C346.699,251.153,344.106,249.876,341.326,248.983z"/>
					<path style="fill:#FFFFFF;stroke:#222221;stroke-width:0.5;stroke-miterlimit:10;" d="M290.236,369.516
						c-0.966,3.057-2.344,5.923-4.532,8.244c-1.364,1.447-5.634,7.737-0.996,7.77c8.285,0.06,15.29-4.575,19.072-11.73
						c2.944-5.57,5.728-11.225,8.349-16.955c1.85-4.045,20.23-52.644,19.782-52.794c7.984,2.548,16.424,3.66,24.797,3.269
						c3.861-0.18,7.782-0.699,11.277-2.349c2.259-1.066,8.881-5.526,9.043-8.366c0.179-3.127-8.331-4.832-10.876-5.817
						c-9.592-3.711-19.184-7.422-28.776-11.133c-11.671-4.515-22.815-5.749-29.935,6.327c-2.694,4.57-4.126,9.762-5.335,14.927
						c-4.712,20.126-6.477,40.817-10.149,61.159C291.509,364.553,291.001,367.095,290.236,369.516z"/>
					<path style="fill:#FFFFFF;stroke:#000000;stroke-width:0.5;stroke-miterlimit:10;" d="M401.316,239.113
						c0.113-0.092,0.225-0.185,0.338-0.278c1.998-1.652,4.516-3.53,6.924-2.569c1.594,0.636,2.512,2.418,2.558,4.134
						c0.046,1.715-0.629,3.369-1.443,4.88c-2.702,5.016-7.329,7.905-11.785,11.236c-4.629,3.461-10.625,6.909-16.639,6.012
						c-3.03-0.452-6.393-2.417-6.389-5.48c0.003-1.672,1.067-3.195,2.404-4.199c1.337-1.005,2.934-1.587,4.487-2.208
						C388.82,247.819,395.435,243.917,401.316,239.113z"/>
					<g>
						<defs>
							<path id="SVGID_00000077324749690960924480000018255037288465518752_" d="M413.568,251.908
								c-3.174-0.238-6.174-1.759-7.768-4.591c-1.494-2.654-1.528-5.928-0.443-8.733c1.445-3.733,4.582-6.083,8.379-7.092
								c2.347-0.624,4.744-1.062,7.16-1.308c0.661-1.52,1.564-3.443,1.679-5.116c0.087-1.274-0.991-2.229-1.72-3.142
								c-0.608-0.762-1.32-1.424-1.804-2.281c-1.514-2.68-2.011-6.015-1.507-9.04c1.145-6.87,6.413-11.471,13.499-9.539
								c11.417,3.113,8.66,15.729,4.523,23.29c-1.833,3.351-3.447,7.267-2.262,10.899c1.105,3.387,4.377,5.634,5.873,8.868
								c3.857,8.345-4.794,18.432-13.366,13.688c-2.695-1.491-5.429-5.105-8.385-5.643
								C416.156,251.937,414.852,252.023,413.568,251.908z"/>
						</defs>
						<use xlink:href="#SVGID_00000077324749690960924480000018255037288465518752_"  style="overflow:visible;fill:#FFFFFF;"/>
						<clipPath id="SVGID_00000021111675740602173640000005835745329704317372_">
							<use xlink:href="#SVGID_00000077324749690960924480000018255037288465518752_"  style="overflow:visible;"/>
						</clipPath>
						
							<use xlink:href="#SVGID_00000077324749690960924480000018255037288465518752_"  style="overflow:visible;fill:none;stroke:#222221;stroke-width:0.5;stroke-miterlimit:10;"/>
					</g>
					<path style="fill:#7696EA;stroke:#000000;stroke-width:0.5;stroke-miterlimit:10;" d="M435.117,240.082
						c-2.197,0.813-4.598,0.846-6.939,0.763c-2.271-0.08-4.619-0.572-6.638-1.661c-1.311-0.707-2.877-1.91-3.328-3.388
						c-0.524-1.717-0.166-3.886,0.497-5.509c-5.304,0.263-10.559,1.485-15.434,3.589c-1.598,0.689-3.169,1.481-4.521,2.577
						c-3.824,3.098-3.812,8.393-4.176,12.934c-0.465,5.798-6.598,10.464-12.305,10.105c-4.869-0.306-8.018-4.232-12.2-6.058
						c-1.088-0.475-11.911-4.528-14.742-5.849c-2.168,5.279-3.619,10.822-4.568,16.449c-0.935,5.544-1.398,11.166-1.438,16.787
						c-0.038,5.404,0.209,10.866,1.231,16.182c0.754,3.922,1.98,7.661,3.519,11.269c0.855,0.45,1.844,0.796,3.025,0.99
						c13.408,2.201,34.387,3.91,45.904-5.194c4.95-3.913,6.688-13.707,8.637-20.503c5.516-6.414,11.031-12.828,16.546-19.241
						c-0.118-2.285-0.773-4.476-0.99-6.713c-0.078-0.801,0.083-1.579,0.372-2.331c0.354-0.919,0.902-1.798,1.445-2.628
						c0.53-0.81,8.207-8.559,8.943-7.154C437.01,243.694,436.063,241.888,435.117,240.082z"/>
					<path style="fill:#FFFFFF;stroke:#222221;stroke-width:0.5;stroke-miterlimit:10;" d="M382.116,267.829l-33.387-15.507
						c-0.435-0.202-0.32-0.85,0.158-0.89l23.175-1.958l34.984,16.249L382.116,267.829z"/>
					<polygon style="fill:#FFFFFF;stroke:#222221;stroke-width:0.5;stroke-miterlimit:10;" points="381.808,264.652 
						363.725,256.253 376.334,255.761 394.417,264.16 					"/>
					<path style="fill:#FFFFFF;stroke:#222221;stroke-width:0.5;stroke-miterlimit:10;" d="M420.473,258.245
						c-3.18,5.484-5.769,11.338-7.724,17.306c-0.755,2.31-1.457,4.981-0.597,7.35c0.577,1.591,1.8,2.96,3.362,3.611
						c0.964,0.402,2.019,0.528,3.062,0.599c4.434,0.301,7.005-1.354,9.638-4.752c2.712-3.499,5.701-7.554,7.462-11.631
						c1.66-3.845,4.079-7.525,4.506-11.82c0.406-4.08-1.375-8.681-5.165-10.246c-3.077-1.271-7.468-0.857-9.475,1.855
						C423.715,252.986,422.024,255.572,420.473,258.245z"/>
					<path style="fill:#7696EA;stroke:#000000;stroke-width:0.5;stroke-miterlimit:10;" d="M424.942,246.305
						c-2.091,2.879-4.266,6.26-5.299,9.688c2.616,1.933,6.555,2.925,9.582,4.122c3.482,1.377,6.99,2.691,10.52,3.939
						c0.251,0.089,0.54,0.175,0.773,0.046c0.186-0.103,0.279-0.314,0.359-0.511c1.257-3.11,2.259-6.365,2.581-9.716
						c0.329-3.419,0.469-7.341-1.127-10.492c-1.955-3.859-6.478-4.631-10.274-3.4c-1.885,0.612-3.882,0.879-5.862,0.785"/>
					<path style="fill:#222221;" d="M417.301,206.806c4.073,0.624,7.676,1.856,11.526,3.096c0.315-1.038,0.642-2.071,1.222-3.009
						c-0.837,1.353-0.157,5.734-0.23,7.392c-0.122,2.771-0.284,5.54-0.486,8.305c-0.393,5.378-0.937,10.745-1.632,16.093
						c-0.169,1.302-1.519,5.823-0.523,6.702c1.122,0.991,6.083,0.152,7.576,0.151c5.632-0.005,11.264-0.01,16.897-0.015
						c0.33,0,0.706-0.021,0.916-0.275c0.168-0.203,0.173-0.49,0.17-0.753c-0.077-7.271-1.415-14.698-2.45-21.939
						c-0.801-5.938-2.335-12.034-6.213-16.601c-4.753-5.598-12.253-9.232-19.494-6.658c-3.578,1.272-6.63,3.965-8.336,7.358
						C416.594,206.701,416.946,206.752,417.301,206.806z"/>
					<path style="fill:#222221;" d="M419.728,220.543l0.004,0.12c1.099,0.776,1.784,1.983,2.319,3.21
						c1.223-0.12,2.422-0.372,3.232-1.124c0.364-0.338,0.759-0.752,0.978-1.184C424.154,222.125,421.672,221.737,419.728,220.543z"
						/>
					<path style="fill:none;stroke:#222221;stroke-width:0.5;stroke-miterlimit:10;" d="M418.975,215.85
						c0.001,1.018,0.702,1.998,1.665,2.328c0.963,0.33,2.118-0.015,2.743-0.818"/>
					<polygon points="347.132,251.581 345.334,227.743 381.592,244.262 382.116,267.829 					"/>
					<path style="fill:#222221;" d="M390.335,249.354l9.44,2.583c0.211-0.145,0.31-0.213,0.522-0.357l2.182-21.395
						c0.02-0.201-0.108-0.388-0.303-0.441l-9.44-2.583c-0.211,0.145-0.31,0.213-0.522,0.357l-2.182,21.395
						C390.147,249.079,390.221,249.187,390.335,249.354z"/>
					<path style="fill:#FFFFFF;stroke:#222221;stroke-width:0.5;stroke-miterlimit:10;" d="M418.948,273.894
						c-1.256-2.066-4.412-5.314-4.412-5.314c-0.444-0.513-0.88-1.033-1.314-1.555c-2.183-2.629-4.286-5.33-6.262-8.118
						c-1.177-1.662-2.312-3.357-3.351-5.109c-0.865-1.459-2.345-3.474-1.99-5.251c0.568-2.845,1.588-6.478,0.405-9.26
						c-0.069-0.163-0.241-0.357-0.381-0.249c-0.048,0.037-0.068,0.099-0.084,0.158c-0.411,1.525-0.501,3.404-2.517,3.213
						c-1.752-0.166-3.278-1.424-4.247-2.825c-1.212-1.752-1.847-3.834-2.894-5.69c-0.187-0.331-0.605-0.695-0.882-0.434
						c-0.101,0.095-0.13,0.242-0.153,0.38c-0.186,1.088-0.194,2.312,0.218,3.361c-0.62-0.339-1.427,0.231-1.575,0.922
						c-0.13,0.606,0.114,1.174,0.318,1.727c-0.343,0.121-0.769,0.313-0.979,0.655c-0.218,0.355-0.25,0.806-0.138,1.208
						c0.052,0.189,0.135,0.374,0.133,0.57c-0.006,0.509-0.374,1.019-0.44,1.533c-0.104,0.809,0.109,1.646,0.362,2.408
						c0.396,1.189,0.919,2.336,1.558,3.414c0.641,1.082,1.397,2.094,1.987,3.204c0.97,1.824,1.366,3.853,2.151,5.746
						c0.865,2.088,1.642,4.214,2.443,6.328c1.948,5.141,3.713,10.356,5.936,15.388c2.032,4.6,4.544,10.507,10.247,11.033
						c2.768,0.255,5.546-0.683,7.905-2.155c2.993-1.867,4.977-3.967,7.555-7.223"/>
					<g>
						<defs>
							<path id="SVGID_00000133512739710157484970000005995829024110526091_" d="M350.95,253.163
								c-0.493-1.452-0.192-3.331,0.364-4.632c0.18-0.421,0.409-0.835,0.765-1.123c0.577-0.466,1.379-0.52,2.12-0.489
								c0.685,0.029,1.367,0.114,2.038,0.254c0.382,0.08,0.766,0.18,1.101,0.379c1.481,0.883,2.056,2.935,2.24,4.522
								c0.205,1.766,0.143,3.639,0.968,5.265c0.262,0.515,0.616,1.033,1.158,1.235c-1.479-0.407-3.017-0.514-4.521-0.794
								c-2.175-0.406-4.057-1.856-5.54-3.433C351.326,254.012,351.101,253.608,350.95,253.163z"/>
						</defs>
						<clipPath id="SVGID_00000170964049191411673390000002035796080317662126_">
							<use xlink:href="#SVGID_00000133512739710157484970000005995829024110526091_"  style="overflow:visible;"/>
						</clipPath>
					</g>
					<g>
						<path style="fill:#FFFFFF;stroke:#000000;stroke-width:0.5;stroke-miterlimit:10;" d="M362.327,258.186
							c-0.357-0.598-0.629-1.279-0.896-1.963c-0.582-1.491-0.817-3.09-1.048-4.674c-0.271-1.86-0.543-3.72-0.814-5.58
							c-0.08-0.549-0.171-1.125-0.509-1.566c-0.32-0.418-0.936-0.639-1.388-0.39c-0.095-0.116-0.191-0.232-0.299-0.333
							c-0.382-0.354-0.824-0.706-1.377-0.594c-0.47,0.095-0.882,0.512-1.039,0.975c-0.043-0.061-0.081-0.126-0.14-0.176
							c-0.467-0.396-1.25-0.157-1.676,0.207c-0.348,0.297-0.387,0.757-0.404,1.214c0.014-0.396-1.015-0.312-1.196-0.199
							c-0.378,0.236-0.48,0.716-0.522,1.131c-0.199,1.961-0.114,3.943,0.125,5.9c0.182,1.488,0.617,2.921,1.874,3.833
							c1.299,0.943,2.797,1.593,4.296,2.146c1.078,0.398,2.184,0.712,3.301,0.978c1.425,0.34,2.814,0.639,4.235,0.961
							C363.618,259.821,362.873,259.101,362.327,258.186z"/>
						<g>
							<path style="fill:#FFFFFF;stroke:#000000;stroke-width:0.5;stroke-miterlimit:10;" d="M357.681,243.927
								c0.018,1.794,0.12,3.587,0.307,5.372c0.172,1.643,0.14,3.386,0.73,4.948"/>
							<path style="fill:#FFFFFF;stroke:#000000;stroke-width:0.5;stroke-miterlimit:10;" d="M355.18,243.634
								c-0.142,2.844,0.476,7.374,1.022,10.168"/>
							<path style="fill:#FFFFFF;stroke:#000000;stroke-width:0.5;stroke-miterlimit:10;" d="M352.814,243.154
								c0.083,0.345,0.052,0.707,0.027,1.061c-0.188,2.712,0.132,6.407,0.851,9.029"/>
						</g>
					</g>
				</g>
			</g>
			<g>
				<path style="fill:#DEA600;stroke:#000000;stroke-width:0.5;stroke-miterlimit:10;" d="M354.816,293.35
					c0.733-0.086,1.506-0.057,2.163-0.101c4.654-0.315,9.329,0.189,13.974-0.24c4.703-0.434,9.243-1.912,13.9-2.699
					c4.248-0.717,8.652-0.85,12.833,0.191c4.181,1.04,8.136,3.326,10.694,6.793c2.878,3.901,3.423,9.202,1.316,13.554
					c-2.181,4.504-7.119,6.225-11.823,6.891c-4.763,0.674-9.553,0.527-14.348,0.527c-4.107,0-8.214,0.53-12.32,0.22
					c-5.928-0.447-11.416,1.041-16.013-4.38c-3.259-3.843-5.026-9.554-4.182-14.951c0.248-1.582,0.727-4.118,2.074-5.187
					C353.563,293.589,354.174,293.425,354.816,293.35z"/>
				<g>
					<path style="fill:#DEA600;stroke:#000000;stroke-width:0.5;stroke-miterlimit:10;" d="M373.944,294.674l-0.218-11.65
						l-5.667,3.546c-1.998-1.058-4.371-1.674-6.92-1.674c-2.554,0-4.932,0.618-6.932,1.68l-8.977-0.369l3.413,3.579l-0.354,5.731
						c0,5.865,6.015,9.047,13.112,9.047s12.587-3.182,12.587-9.047C373.988,295.233,373.971,294.952,373.944,294.674z"/>
					<path d="M362.226,296.719c0,0.583-0.62,1.055-1.384,1.055c-0.764,0-1.384-0.473-1.384-1.055c0-0.583,0.62-1.055,1.384-1.055
						C361.607,295.664,362.226,296.136,362.226,296.719z"/>
					<path style="fill:none;stroke:#000000;stroke-width:0.5;stroke-miterlimit:10;" d="M360.882,296.555
						c-0.027,0.598,0.031,1.197,0.001,1.795c-0.03,0.598-0.157,1.211-0.511,1.694c-0.443,0.604-1.096,0.797-1.761,0.416
						c-0.311-0.178-0.567-0.436-0.82-0.691"/>
					<path style="fill:none;stroke:#000000;stroke-width:0.5;stroke-miterlimit:10;" d="M360.821,296.555
						c0.027,0.598-0.031,1.197-0.001,1.795c0.03,0.598,0.157,1.211,0.512,1.694c0.455,0.62,1.497,0.994,2.175,0.477
						c0.258-0.197,0.41-0.502,0.514-0.809"/>
					<path style="fill:none;stroke:#000000;stroke-width:0.5;stroke-miterlimit:10;" d="M357.38,295.036
						c-1.922,0.497-4.043-0.044-4.756-1.155"/>
					<g>
						<defs>
							<path id="SVGID_00000096770220588520128020000000082877068984269222_" d="M373.944,294.674l-0.218-11.65l-5.667,3.546
								c-1.998-1.058-4.371-1.674-6.92-1.674c-2.554,0-4.932,0.618-6.932,1.68l-5.13-3.797l-0.352,5.695l-0.435,7.042
								c0,5.865,6.015,9.047,13.112,9.047s12.587-3.182,12.587-9.047C373.988,295.233,373.971,294.952,373.944,294.674z"/>
						</defs>
						<clipPath id="SVGID_00000160191218636630505420000016417249479585389233_">
							<use xlink:href="#SVGID_00000096770220588520128020000000082877068984269222_"  style="overflow:visible;"/>
						</clipPath>
						<path style="clip-path:url(#SVGID_00000160191218636630505420000016417249479585389233_);" d="M362.451,283.657
							c-0.095-0.061-0.19-0.112-0.283-0.152c-0.742-0.316-3.769,0.591-3.037,1.768c0.109,0.176,0.325,0.292,0.36,0.496
							c0.018,0.104-0.017,0.21-0.051,0.31c-0.126,0.383-0.229,0.81-0.065,1.178c0.19,0.427,0.716,0.643,1.175,0.556
							c0.46-0.087,0.842-0.426,1.076-0.831c0.187-0.324,0.301-0.704,0.58-0.955c0.236-0.212,0.564-0.303,0.794-0.522
							C363.65,284.889,363.078,284.062,362.451,283.657z"/>
						<path style="clip-path:url(#SVGID_00000160191218636630505420000016417249479585389233_);" d="M374.214,282.296
							c-0.197-0.112-0.4-0.185-0.573-0.202c-0.654-0.061-1.297,0.26-1.772,0.713c-0.475,0.454-0.809,1.031-1.137,1.6
							c-0.209,0.363-0.421,0.733-0.518,1.141c-0.18,0.761,0.081,1.596,0.615,2.167c0.534,0.571,1.316,0.885,2.097,0.911
							c0.3,0.01,0.623-0.028,0.85-0.225c0.178-0.155,0.27-0.386,0.345-0.611c0.225-0.673,0.361-1.377,0.403-2.086
							c0.023-0.388,0.018-0.783,0.079-1.168c0.059-0.373,0.4-0.791,0.434-1.109C375.082,283.008,374.665,282.552,374.214,282.296z"
							/>
					</g>
					<path style="fill:none;stroke:#000000;stroke-width:0.5;stroke-miterlimit:10;" d="M365.36,295.036
						c1.922,0.497,4.043-0.044,4.756-1.155"/>
				</g>
				<path style="fill:#DEA600;stroke:#000000;stroke-width:0.5;stroke-miterlimit:10;" d="M404.416,298.525
					c0.218,3.699-2.222,7.023-5.077,8.438c-2.611,1.295-5.686,1.317-8.533,1.591c-3.586,0.345-7.171,0.694-10.756,1.041
					c-2.822,0.273-5.785,0.597-8.103,2.228c-2.318,1.632-3.646,5.039-2.062,7.39c1.007,1.494,2.908,2.173,4.71,2.189
					c3.433,0.031,6.857-1.16,10.16-1.895c3.548-0.789,6.981-1.282,10.601-1.661"/>
				<path style="fill:#DEA600;stroke:#000000;stroke-width:0.5;stroke-miterlimit:10;" d="M367.298,318.425
					c0.526-1.491,1.048-3.154,0.425-4.607c-0.517-1.205-1.72-1.974-2.941-2.45c-1.221-0.476-2.526-0.736-3.702-1.315
					c-1.176-0.579-2.256-1.582-2.449-2.879"/>
				<path style="fill:#DEA600;stroke:#000000;stroke-width:0.5;stroke-miterlimit:10;" d="M367.834,305.006
					c0.473,1.747,0.226,3.522-0.323,5.199c-0.521,1.589-0.953,3.051-2.206,4.251c-0.987,0.944-2.274,1.56-3.146,2.611
					c-0.448,0.54-0.779,1.221-0.724,1.921c0.071,0.893,0.779,1.648,1.614,1.974c0.835,0.326,1.772,0.283,2.649,0.102
					c2.667-0.551,5.034-2.403,6.209-4.86"/>
				<g>
					<defs>
						<path id="SVGID_00000004532961750364615490000013434073734408253068_" d="M404.416,298.525
							c0.218,3.699-2.222,7.023-5.077,8.438c-2.611,1.295-5.686,1.317-8.533,1.591c-3.586,0.345-7.171,0.694-10.756,1.041
							c-2.822,0.273-5.785,0.597-8.103,2.228c-2.318,1.632-3.646,5.039-2.062,7.39c1.007,1.494,2.908,2.173,4.71,2.189
							c3.433,0.031,6.857-1.16,10.16-1.895c3.548-0.789,6.981-1.282,10.601-1.661"/>
					</defs>
					<clipPath id="SVGID_00000091007861899531956280000013107617635246169259_">
						<use xlink:href="#SVGID_00000004532961750364615490000013434073734408253068_"  style="overflow:visible;"/>
					</clipPath>
					<path style="clip-path:url(#SVGID_00000091007861899531956280000013107617635246169259_);" d="M371.861,313.299
						c-0.317-0.319-0.593-0.687-0.986-0.903c-1.731-0.952-3.902,1.597-4.355,2.995c-0.66,2.036-0.056,4.633,1.335,6.236
						c2.246,2.588,5.786,1.021,7.236-1.531c0.442-0.778,0.796-1.628,0.854-2.521c0.057-0.893-0.216-1.837-0.871-2.447
						c-0.843-0.786-2.144-0.898-3.019-1.648C371.987,313.423,371.923,313.362,371.861,313.299z"/>
					<path style="clip-path:url(#SVGID_00000091007861899531956280000013107617635246169259_);" d="M389.354,315.987
						c-1.108,0.147-2.095,1.113-3.192,1.556c-0.472,0.191-0.986,0.289-1.421,0.554c-0.5,0.304-0.849,0.799-1.184,1.279
						c-0.234,0.336-0.475,0.692-0.51,1.1c-0.082,0.955,0.942,1.596,1.84,1.931c1.438,0.537,3.062,0.897,4.486,0.324
						c2.724-1.096,4.732-5.964,0.637-6.73C389.786,315.961,389.568,315.959,389.354,315.987z"/>
				</g>
				<g>
					<defs>
						<path id="SVGID_00000038409673081088335280000017365678330534427809_" d="M354.816,293.35
							c0.733-0.086,1.506-0.057,2.163-0.101c4.654-0.315,9.329,0.189,13.974-0.24c4.703-0.434,9.243-1.912,13.9-2.699
							c4.248-0.717,8.652-0.85,12.833,0.191c4.181,1.04,8.136,3.326,10.694,6.793c2.878,3.901,3.423,9.202,1.316,13.554
							c-2.181,4.504-7.119,6.225-11.823,6.891c-4.763,0.674-9.553,0.527-14.348,0.527c-4.107,0-8.214,0.53-12.32,0.22
							c-5.928-0.447-11.416,1.041-16.013-4.38c-3.259-3.843-5.026-9.554-4.182-14.951c0.248-1.582,0.727-4.118,2.074-5.187
							C353.563,293.589,354.174,293.425,354.816,293.35z"/>
					</defs>
					<clipPath id="SVGID_00000006706423781556071150000013019235903657876146_">
						<use xlink:href="#SVGID_00000038409673081088335280000017365678330534427809_"  style="overflow:visible;"/>
					</clipPath>
					<path style="clip-path:url(#SVGID_00000006706423781556071150000013019235903657876146_);" d="M387.728,295.033
						c0.634,0.821,1.514,1.31,2.685,1.321c2.124,0.021,5.16-0.476,7.183-1.119c1.983-0.63,3.872-2.775,3.1-4.994
						c-0.369-1.062-1.22-1.883-2.117-2.561c-0.729-0.551-1.553-1.052-2.466-1.103c-0.738-0.042-1.456,0.214-2.151,0.466
						c-1.469,0.533-2.937,1.067-4.406,1.6c-0.634,0.23-1.284,0.469-1.797,0.908c-1.053,0.901-1.297,2.504-0.871,3.822
						C387.098,294.012,387.374,294.574,387.728,295.033z"/>
				</g>
				<path style="fill:none;stroke:#000000;stroke-width:0.5;stroke-miterlimit:10;" d="M380.05,309.595
					c-2.822,0.273-5.785,0.597-8.103,2.228c-2.318,1.632-3.646,5.039-2.062,7.39"/>
				<path style="fill:none;stroke:#000000;stroke-width:0.5;stroke-miterlimit:10;" d="M361.561,319.637
					c0.529-0.866,1.26-1.606,2.119-2.145"/>
				<path style="fill:none;stroke:#000000;stroke-width:0.5;stroke-miterlimit:10;" d="M362.514,320.727
					c0.702-0.537,1.403-1.073,2.105-1.61"/>
				<path style="fill:none;stroke:#000000;stroke-width:0.5;stroke-miterlimit:10;" d="M373.858,310.692
					c0.787-0.838,1.449-1.793,1.96-2.823"/>
			</g>
			<path style="fill:#FFFFFF;stroke:#222221;stroke-width:0.5;stroke-miterlimit:10;" d="M332.118,304.234
				c-1.314-1.398-2.364-3.043-3.079-4.823"/>
		</g>
		<g>
			<g>
				<g>
					<path style="fill:#7696EA;stroke:#000000;stroke-width:0.5;stroke-miterlimit:10;" d="M218.992,386.896H80.043
						c-0.72,0-1.304-0.584-1.304-1.304V81.766c0-0.72,0.584-1.304,1.304-1.304h138.949c0.72,0,1.304,0.584,1.304,1.304v303.826
						C220.297,386.312,219.713,386.896,218.992,386.896z"/>
					
						<rect x="83.735" y="100.492" style="fill:#FFFFFF;stroke:#222221;stroke-width:0.5;stroke-miterlimit:10;" width="131.719" height="266.374"/>
				</g>
				<g>
					<rect x="90.993" y="149.98" style="fill:#FADDD4;" width="116.502" height="170.288"/>
					<rect x="90.993" y="138.154" width="116.633" height="2.083"/>
					<rect x="90.993" y="334.402" width="110.776" height="3.283"/>
					<rect x="90.993" y="341.219" width="68.007" height="3.283"/>
				</g>
				<g>
					<g>
						<g>
							<path style="fill:#282951;" d="M208.75,121.428h-8.984c-0.705,0-1.306-0.474-1.46-1.152l-1.805-9.006
								c-0.051-0.223-0.253-0.404-0.498-0.438l-3.032-0.424l0.124-0.886l3.032,0.424c0.612,0.086,1.113,0.543,1.249,1.137
								l0.633,3.155h11.462c0.446,0,0.865,0.194,1.15,0.532c0.279,0.33,0.397,0.763,0.325,1.186l-0.722,4.242
								C210.104,120.911,209.484,121.428,208.75,121.428z M198.189,115.133l0.993,4.956c0.058,0.253,0.304,0.444,0.585,0.444h8.984
								c0.296,0,0.546-0.204,0.593-0.485l0.722-4.242c0.029-0.166-0.017-0.328-0.127-0.459c-0.115-0.136-0.284-0.214-0.466-0.214
								H198.189z"/>
						</g>
						<g>
							<path style="fill:#282951;" d="M200.8,124.128c-0.74,0-1.339-0.587-1.339-1.312c0-0.724,0.6-1.311,1.339-1.311
								c0.739,0,1.339,0.587,1.339,1.311C202.139,123.541,201.539,124.128,200.8,124.128z"/>
						</g>
						<g>
							<path style="fill:#282951;" d="M206.156,124.128c-0.739,0-1.339-0.587-1.339-1.312c0-0.724,0.6-1.311,1.339-1.311
								c0.74,0,1.339,0.587,1.339,1.311C207.495,123.541,206.896,124.128,206.156,124.128z"/>
						</g>
					</g>
					<g>
						<g>
							<path style="fill:#282951;" d="M177.807,120.395c-2.819,0-5.112-2.294-5.112-5.112c0-2.819,2.293-5.112,5.112-5.112
								c2.819,0,5.113,2.294,5.113,5.112C182.92,118.102,180.626,120.395,177.807,120.395z M177.807,111.066
								c-2.325,0-4.217,1.892-4.217,4.217c0,2.326,1.892,4.217,4.217,4.217c2.326,0,4.218-1.892,4.218-4.217
								C182.024,112.958,180.133,111.066,177.807,111.066z"/>
						</g>
						<g>
							
								<rect x="181.843" y="118.536" transform="matrix(0.7511 -0.6602 0.6602 0.7511 -34.7469 150.5426)" style="fill:#282951;" width="0.895" height="5.641"/>
						</g>
					</g>
				</g>
				<g>
					<g>
						
							<rect x="89.306" y="116.258" transform="matrix(1 -0.0016 0.0016 1 -0.1921 0.157)" style="fill:#282951;" width="11.972" height="1.134"/>
					</g>
					<g>
						
							<rect x="89.301" y="112.453" transform="matrix(1 -0.0016 0.0016 1 -0.184 0.1553)" style="fill:#282951;" width="11.972" height="1.134"/>
					</g>
					<g>
						
							<rect x="89.311" y="120.063" transform="matrix(1 -0.0016 0.0016 1 -0.1974 0.1562)" style="fill:#282951;" width="11.973" height="1.134"/>
					</g>
				</g>
				<g>
					<defs>
						
							<rect id="SVGID_00000048497658055023990990000000741977856901862806_" x="90.993" y="149.98" width="116.502" height="170.288"/>
					</defs>
					<clipPath id="SVGID_00000125595519973667312370000016495585909122395818_">
						<use xlink:href="#SVGID_00000048497658055023990990000000741977856901862806_"  style="overflow:visible;"/>
					</clipPath>
					<g style="clip-path:url(#SVGID_00000125595519973667312370000016495585909122395818_);">
						<rect x="155.106" y="244.219" style="fill:#E0ADAD;" width="62.133" height="95.059"/>
						
							<line style="fill:none;stroke:#222221;stroke-width:0.5;stroke-miterlimit:10;" x1="152.751" y1="261.892" x2="227.252" y2="261.892"/>
						
							<line style="fill:none;stroke:#222221;stroke-width:0.5;stroke-miterlimit:10;" x1="152.751" y1="281.327" x2="227.252" y2="281.327"/>
						
							<line style="fill:none;stroke:#222221;stroke-width:0.5;stroke-miterlimit:10;" x1="152.751" y1="300.762" x2="227.252" y2="300.762"/>
						
							<line style="fill:none;stroke:#222221;stroke-width:0.5;stroke-miterlimit:10;" x1="152.751" y1="320.197" x2="227.252" y2="320.197"/>
						<path style="fill:none;stroke:#222221;stroke-width:0.5;stroke-miterlimit:10;" d="M188.97,267.634
							c0,1.057-0.857,1.914-1.914,1.914c-1.057,0-1.914-0.857-1.914-1.914s0.857-1.914,1.914-1.914
							C188.114,265.72,188.97,266.577,188.97,267.634z"/>
						<path style="fill:none;stroke:#222221;stroke-width:0.5;stroke-miterlimit:10;" d="M188.97,288.983
							c0,1.057-0.857,1.914-1.914,1.914c-1.057,0-1.914-0.857-1.914-1.914c0-1.057,0.857-1.914,1.914-1.914
							C188.114,287.069,188.97,287.926,188.97,288.983z"/>
						<path style="fill:none;stroke:#222221;stroke-width:0.5;stroke-miterlimit:10;" d="M188.97,310.332
							c0,1.057-0.857,1.914-1.914,1.914c-1.057,0-1.914-0.857-1.914-1.914c0-1.057,0.857-1.914,1.914-1.914
							C188.114,308.418,188.97,309.275,188.97,310.332z"/>
					</g>
					<path style="clip-path:url(#SVGID_00000125595519973667312370000016495585909122395818_);fill:#E0ADAD;" d="M186.064,215.056
						c1.892-8.788,5.466-17.867,12.894-22.93c2.177-1.484,4.707-2.587,7.342-2.595c2.635-0.008,5.365,1.236,6.659,3.532
						c1.569,2.784,0.701,6.406-1.166,8.999c-1.868,2.593-4.57,4.433-7.071,6.423c-9.578,7.621-15.748,17.573-20.116,28.841
						C182.847,230.189,184.549,222.09,186.064,215.056z"/>
					<path style="clip-path:url(#SVGID_00000125595519973667312370000016495585909122395818_);fill:#E0ADAD;" d="M176.969,202.326
						c-0.53-2.042-1.315-4.173-3.02-5.415c-2.703-1.968-6.849-0.743-8.804,1.97c-1.955,2.712-2.073,6.387-1.267,9.632
						c1.473,5.931,5.532,10.625,8.948,15.521c3.144,4.506,4.737,9.485,7.307,14.18c0.501-3.835-0.712-8.215-1.019-12.106
						C178.487,218.157,178.993,210.121,176.969,202.326z"/>
					
						<path style="clip-path:url(#SVGID_00000125595519973667312370000016495585909122395818_);fill:none;stroke:#222221;stroke-width:0.5;stroke-miterlimit:10;" d="
						M197.039,206.11c-7.98,10.579-12.393,23.8-12.368,37.051"/>
					
						<path style="clip-path:url(#SVGID_00000125595519973667312370000016495585909122395818_);fill:none;stroke:#222221;stroke-width:0.5;stroke-miterlimit:10;" d="
						M181.311,241.662c-1.31-8.462-3.393-16.805-6.215-24.89"/>
				</g>
			</g>
			<g>
				<defs>
					
						<rect id="SVGID_00000113339027690655234960000013063253755013550991_" x="90.993" y="149.98" width="136.532" height="170.288"/>
				</defs>
				<clipPath id="SVGID_00000182509771407537844530000002060528400963613056_">
					<use xlink:href="#SVGID_00000113339027690655234960000013063253755013550991_"  style="overflow:visible;"/>
				</clipPath>
				<g style="clip-path:url(#SVGID_00000182509771407537844530000002060528400963613056_);">
					<path style="fill:#FFFFFF;stroke:#222221;stroke-width:0.5;stroke-miterlimit:10;" d="M121.123,355.922
						c-4.373-0.749-9.163-0.789-13.352-2.31c-2.266-0.823-2.102-22.067-2.178-24.825c-0.456-16.48,0.573-34.619,4.635-50.632
						c0.962-3.793,2.233-7.695,5.009-10.453c2.777-2.757,7.474-3.948,10.669-1.688c3.455,2.444,3.66,7.414,3.419,11.64
						c-0.948,16.624-1.928,33.194-3.943,49.777C124.223,336.964,122.803,346.466,121.123,355.922z"/>
					<path style="fill:#FFFFFF;stroke:#222221;stroke-width:0.5;stroke-miterlimit:10;" d="M97.218,356.32
						c-4.373-0.749-9.163-0.789-13.352-2.31c-2.266-0.823-2.102-22.067-2.178-24.825c-0.456-16.48,0.572-34.619,4.635-50.632
						c0.962-3.793,2.233-7.695,5.009-10.452c2.777-2.757,7.475-3.948,10.669-1.688c3.455,2.444,3.66,7.414,3.419,11.64
						c-0.948,16.624-1.928,33.194-3.943,49.777C100.318,337.362,98.898,346.864,97.218,356.32z"/>
					<path style="fill:#FFFFFF;stroke:#222221;stroke-width:0.5;stroke-miterlimit:10;" d="M212.295,233.717
						c-3.469,0.901-6.944,1.759-10.563,1.606c-5.215-0.221-10.318-1.653-15.06-3.792c-7.494-3.381-14.386-8.64-20.205-14.265
						c-2.976,4.802-5.995,9.579-8.959,14.388c7.808,6.095,16.571,11.347,26.447,13.103c7.153,1.272,13.605,0.893,20.755-1.014
						c2.604-0.694,5.09-1.619,7.585-2.6V233.717z"/>
					<path style="fill:#A8E667;" d="M133.667,269.772c-0.047,0.738-0.092,1.477-0.132,2.215c-0.117-0.214-0.225-0.431-0.331-0.649
						c-0.004-0.379-0.004-0.758-0.001-1.138L133.667,269.772z"/>
					<path style="fill:#F65E59;stroke:#000000;stroke-width:0.5;stroke-miterlimit:10;" d="M83.41,304.657
						c5.964,1.598,12.138,2.584,18.264,3.329c6.729,0.818,13.503,1.331,20.286,1.258c4.004-0.043,8.097-0.287,12.15-0.835
						c-0.257-5.03-0.423-10.064-0.476-15.099c-0.135-13.044,0.414-26.095,1.649-39.081c0.722-7.59,4.64-21.816-7.327-21.626
						c-11.44,0.182-23.868,9.254-31.203,17.332c-8.283,9.122-14.003,20.462-17.439,32.24c-1.788,6.128-3.079,12.385-4.142,18.675
						c-0.044,0.262-0.078,0.576-0.109,0.911C77.772,302.997,80.643,303.915,83.41,304.657z"/>
					<path style="fill:#7696EA;stroke:#000000;stroke-width:0.5;stroke-miterlimit:10;" d="M152.4,205.755
						c-6.179-3.607-12.956-7.52-20.047-8.893c-3.603-0.698-7.464-0.597-10.78,0.974c-3.723,1.763-3.67,5.901-4.106,9.439
						c-0.607,4.926-1.903,9.596-3.99,14.116c-3.246,7.029-7.084,13.785-11.46,20.172c1.789,0.668,3.357,1.991,5.065,2.889
						c3.088,1.624,6.337,2.902,9.57,4.202c4.705,1.892,9.365,3.734,14.225,5.207c2.089,0.633,4.19,1.223,6.295,1.799
						c5.053-8.263,9.975-16.607,14.75-25.034c1.154,1.045,5.379,5.846,8.658,8.313c3.255-6.908,6.662-13.756,10.889-20.09
						c0.038-0.095,0.075-0.189,0.113-0.284C171.981,217.561,154.193,206.802,152.4,205.755z"/>
					<path style="fill:#FFFFFF;stroke:#222221;stroke-width:0.5;stroke-miterlimit:10;" d="M133.068,196.862
						c0.136-0.046,0.27-0.106,0.399-0.18c1.763-1.014,2.643-4.632,3.18-6.448c0.818-2.766,1.324-5.612,1.912-8.432
						c0.741-3.556,0.303-7.121,3.042-9.992c1.843-1.932,4.658-2.906,7.292-2.468c2.78,0.463,5.443,1.782,7.015,4.194
						c1.569,2.408,0.639,6.46,0.061,9.079c-0.418,1.895-0.967,3.811-2.108,5.38c-1.141,1.569-2.985,2.746-4.921,2.626
						c-0.487-0.029-1.842,4.902-2.021,5.588c-0.437,1.67-0.829,3.784-0.143,5.443c0.492,1.189,1.553,2.127,2.794,2.47
						c-1.8,2.089-4.551,3.147-7.282,3.529c-6.959,0.973-12.036-4.731-12.529-11.289
						C130.811,196.797,132.029,197.215,133.068,196.862z"/>
					<path style="fill:#FFFFFF;stroke:#222221;stroke-width:0.5;stroke-miterlimit:10;" d="M153.635,184.163
						c-0.014,1.297-1.21,2.464-2.508,2.445c-1.297-0.018-2.46-1.218-2.438-2.515L153.635,184.163z"/>
					<path style="fill:#222221;" d="M150.428,175.371c-1.846,1.441-4.134,2.357-6.511,2.571c0.015,0.005-1.704,4.28-1.995,4.733
						c-0.862,1.34-2.285,4.492-4.393,3.97c-2.218-0.549-2.863-4.774-3.499-6.517c-0.609-1.669-1.227-3.408-1.03-5.155
						c0.202-1.785,1.252-3.385,2.583-4.616c1.331-1.232,2.938-2.143,4.529-3.043c1.712-0.969,3.471-1.954,5.433-2.286
						c1.724-0.292,3.519-0.059,5.204,0.445c2.072,0.62,4.062,1.686,5.44,3.318c1.959,2.321,1.777,5.124,1.376,7.885
						c-1.639-0.565-3.235-2.043-4.676-3.003c-0.094-0.062-0.193-0.127-0.305-0.14c-0.23-0.026-0.415,0.164-0.564,0.334
						C151.54,174.418,151.005,174.92,150.428,175.371z"/>
					<path style="fill:#FFFFFF;" d="M137.871,181.935c-0.134,4.199,5.933,4.652,6.245,0.406
						C144.428,178.086,138.007,177.667,137.871,181.935z"/>
					<path style="fill:#222221;" d="M134.658,160.153c-0.979,1.255-1.382,2.97-0.939,4.501c0.741,2.561,4.6,4.437,7.126,3.565
						c1.366-0.471,2.291-1.753,2.835-3.085c0.36-0.881,0.594-1.828,0.553-2.78c-0.072-1.65-1.025-3.24-2.453-4.091
						C139.21,156.733,136.353,157.979,134.658,160.153z"/>
					<path style="fill:#FFFFFF;stroke:#222221;stroke-width:0.5;stroke-miterlimit:10;" d="M92.674,232.16
						c8.326-3.839,16.642-8.255,20.746-16.92c0.636-1.342,1.164-2.779,1.156-4.264c-0.008-1.485-0.637-3.035-1.892-3.83
						c-1.427-0.904-3.294-0.662-4.898-0.134c-5.275,1.735-9.254,6.005-13.9,9.046c-7.945,5.201-17.711,6.726-26.302,10.771
						c-1.827,0.86-3.647,1.872-4.933,3.429c-2.262,2.738-1.891,6.483,1.578,7.7c2.481,0.87,5.496,0.448,8.027,0.077
						c6.124-0.896,12.178-2.756,17.971-4.904C91.047,232.825,91.878,232.527,92.674,232.16z"/>
					<path style="fill:#FFFFFF;stroke:#222221;stroke-width:0.5;stroke-miterlimit:10;" d="M140.733,180.51
						c0.581-0.001,1.15,0.335,1.43,0.844c0.28,0.509,0.26,1.169-0.051,1.66"/>
					<g>
						<defs>
							<path id="SVGID_00000010284927460372415900000003559486791082913462_" d="M133.068,196.862
								c0.136-0.046,0.27-0.106,0.399-0.18c1.763-1.014,2.643-4.632,3.18-6.448c0.818-2.766,1.324-5.612,1.912-8.432
								c0.741-3.556,0.303-7.121,3.042-9.992c1.843-1.932,4.658-2.906,7.292-2.468c2.78,0.463,5.443,1.782,7.015,4.194
								c1.569,2.408,0.639,6.46,0.061,9.079c-0.418,1.895-0.967,3.811-2.108,5.38c-1.141,1.569-2.985,2.746-4.921,2.626
								c-0.487-0.029-1.842,4.902-2.021,5.588c-0.437,1.67-0.829,3.784-0.143,5.443c0.492,1.189,1.553,2.127,2.794,2.47
								c-1.8,2.089-4.551,3.147-7.282,3.529c-6.959,0.973-12.036-4.731-12.529-11.289
								C130.811,196.797,132.029,197.215,133.068,196.862z"/>
						</defs>
						<clipPath id="SVGID_00000083787728318379817100000006906787975372842647_">
							<use xlink:href="#SVGID_00000010284927460372415900000003559486791082913462_"  style="overflow:visible;"/>
						</clipPath>
						<path style="clip-path:url(#SVGID_00000083787728318379817100000006906787975372842647_);fill:#222221;" d="M150.396,190.88
							c-1.635-0.232-3.224-0.782-4.653-1.61c0.346,2.293,2.312,4.244,4.607,4.573"/>
					</g>
					<path style="fill:#7696EA;stroke:#000000;stroke-width:0.5;stroke-miterlimit:10;" d="M129.198,196.394
						c-6.103-0.504-13.639,0.814-18.867,4.003c-5.228,3.189-9.368,6.658-13.297,11.355c3.613,3.454,8.369,8.446,11.982,11.901
						c1.627-1.097,3.254-2.193,4.881-3.29"/>
				</g>
				
					<rect x="90.993" y="149.98" style="clip-path:url(#SVGID_00000182509771407537844530000002060528400963613056_);fill:none;stroke:#222221;stroke-width:0.5;stroke-miterlimit:10;" width="116.502" height="170.288"/>
			</g>
			<g>
				<path style="fill:none;stroke:#222221;stroke-width:0.5;stroke-miterlimit:10;" d="M231.181,254.792
					c1.36,6.043-5.021,11.216-11.216,11.216c-6.194,0-13.311-5.387-11.216-11.216c1.884-5.239,11.216-15.831,11.216-15.831
					S229.957,249.353,231.181,254.792z"/>
				<polygon style="fill:#222221;" points="245.601,305.608 239.192,305.608 207.147,303.277 210.352,253.189 239.192,253.189 				
					"/>
				<polygon style="fill:#DEA600;stroke:#000000;stroke-width:0.5;stroke-miterlimit:10;" points="239.192,305.608 199.694,306.131 
					201.255,253.189 235.987,253.189 				"/>
			</g>
			<path style="fill:#FFFFFF;stroke:#222221;stroke-width:0.5;stroke-miterlimit:10;" d="M178.741,243.483
				c1.703,0.526,3.44,0.958,5.215,1.273c5.712,1.016,11.598,0.975,17.335,0.183c2.742-0.379,5.45-0.97,8.137-1.629
				c1.327-0.325,2.649-0.667,3.972-1.01c0.807-0.209,1.874-0.867,2.73-0.65c0.993,0.253,1.858,1.686,2.4,2.512
				c0.2,0.305,0.395,0.614,0.636,0.887c2.639,2.99,5.645-0.255,5.66-3.203c0.011-2.272-0.753-4.584-2.309-6.241
				c-2.951-3.143-7.89-2.666-11.648-1.581c-2.935,0.848-6.072,1.426-9.136,1.296c-5.215-0.221-10.318-1.653-15.06-3.792
				c-0.728-0.329-1.446-0.689-2.162-1.052"/>
			<g>
				<path style="fill:#DEA600;stroke:#000000;stroke-width:0.5;stroke-miterlimit:10;" d="M212.219,288.862
					c-0.998-1.92-1.144-3.838,0.682-5.213c1.038-0.781,2.543-0.669,3.689-0.056c1.146,0.612,2.007,1.637,2.816,2.653
					c0.581-1.363,1.357-2.724,2.616-3.505c1.259-0.781,3.104-0.779,4.061,0.352c0.862,1.019,0.746,2.53,0.449,3.832
					c-0.681,2.979-3.746,11.63-7.904,8.733C217.039,294.55,213.696,291.703,212.219,288.862z"/>
				<path style="fill:#DEA600;stroke:#000000;stroke-width:0.5;stroke-miterlimit:10;" d="M211.09,269.86
					c-0.998-1.921-1.144-3.838,0.682-5.213c1.038-0.781,2.543-0.669,3.689-0.056c1.146,0.612,2.007,1.637,2.816,2.653
					c0.581-1.363,1.357-2.723,2.616-3.505c1.259-0.781,3.104-0.779,4.061,0.352c0.862,1.019,0.746,2.53,0.449,3.832
					c-0.681,2.979-3.746,11.63-7.904,8.733C215.91,275.548,212.567,272.701,211.09,269.86z"/>
			</g>
		</g>
		<g>
			<g>
				<circle style="fill:none;stroke:#222221;stroke-width:0.5;stroke-miterlimit:10;" cx="284.052" cy="350.55" r="13.744"/>
				<polygon style="fill:#222221;" points="315.467,412.824 311.54,408.897 307.613,412.824 268.344,409.967 272.271,348.587 
					307.613,348.587 				"/>
				<path style="fill:#E0ADAD;" d="M307.613,412.824h-44.932c-1.188,0-2.13-1.001-2.057-2.187l0.499-62.05h42.563L307.613,412.824z"
					/>
				<g>
					<defs>
						<path id="SVGID_00000148652780199000128880000015823990873830630037_" d="M307.613,412.824h-44.932
							c-1.188,0-2.13-1.001-2.057-2.187l0.499-62.05h42.563L307.613,412.824z"/>
					</defs>
					<clipPath id="SVGID_00000178203418080798263610000001677314764392662676_">
						<use xlink:href="#SVGID_00000148652780199000128880000015823990873830630037_"  style="overflow:visible;"/>
					</clipPath>
					<g style="clip-path:url(#SVGID_00000178203418080798263610000001677314764392662676_);">
						
							<line style="fill:none;stroke:#222221;stroke-width:0.5;stroke-miterlimit:10;" x1="254.155" y1="355.289" x2="317.368" y2="355.289"/>
						
							<line style="fill:none;stroke:#222221;stroke-width:0.5;stroke-miterlimit:10;" x1="254.155" y1="365.449" x2="317.368" y2="365.449"/>
						
							<line style="fill:none;stroke:#222221;stroke-width:0.5;stroke-miterlimit:10;" x1="254.155" y1="375.608" x2="317.368" y2="375.608"/>
						
							<line style="fill:none;stroke:#222221;stroke-width:0.5;stroke-miterlimit:10;" x1="254.155" y1="385.767" x2="317.368" y2="385.767"/>
						
							<line style="fill:none;stroke:#222221;stroke-width:0.5;stroke-miterlimit:10;" x1="254.155" y1="395.926" x2="317.368" y2="395.926"/>
						
							<line style="fill:none;stroke:#222221;stroke-width:0.5;stroke-miterlimit:10;" x1="254.155" y1="406.086" x2="317.368" y2="406.086"/>
					</g>
				</g>
			</g>
			<g>
				
					<ellipse style="fill:none;stroke:#222221;stroke-width:0.5;stroke-miterlimit:10;" cx="224.742" cy="368.282" rx="12.665" ry="13.939"/>
				<polygon style="fill:#222221;" points="258.994,422.047 249.86,422.047 204.191,422.047 208.757,366.291 249.86,366.291 				"/>
				<polygon style="fill:#F65E59;stroke:#000000;stroke-width:0.5;stroke-miterlimit:10;" points="249.86,422.047 195.057,422.047 
					199.624,366.291 248.166,366.291 				"/>
			</g>
			<g>
				<rect x="266.614" y="398.31" style="fill:#FFFFFF;" width="17.836" height="3.931"/>
				<g>
					<g>
						
							<ellipse style="fill:none;stroke:#222221;stroke-width:0.5;stroke-miterlimit:10;" cx="256.461" cy="397.044" rx="14.643" ry="13.747"/>
					</g>
					<polygon style="fill:#222221;" points="298.16,438.113 225.204,438.113 225.204,395.087 296.276,395.087 					"/>
					
						<rect x="218.719" y="395.087" style="fill:#9DD1C9;stroke:#000000;stroke-width:0.5;stroke-miterlimit:10;" width="72.956" height="43.026"/>
				</g>
				<g>
					<defs>
						
							<rect id="SVGID_00000047035413214248500320000011239675257758169991_" x="218.719" y="395.087" width="72.956" height="43.026"/>
					</defs>
					<clipPath id="SVGID_00000114765619682990174060000007676511404765143701_">
						<use xlink:href="#SVGID_00000047035413214248500320000011239675257758169991_"  style="overflow:visible;"/>
					</clipPath>
					<path style="clip-path:url(#SVGID_00000114765619682990174060000007676511404765143701_);fill:#222221;" d="M274.56,426.255
						c-0.624,1.04-0.744,2.164,0.125,3.242c2.003,2.484,7.477,0.245,9.691-0.597c5.126-1.95,11.481-2.805,12.549-9.339
						c0.088-0.538,0.116-1.134-0.192-1.584c-0.205-0.298-0.532-0.49-0.867-0.625c-1.415-0.568-3.043-0.249-4.438,0.368
						c-1.395,0.617-2.65,1.514-4.031,2.162c-2.283,1.071-4.829,1.428-7.215,2.242C278.69,422.632,275.734,424.296,274.56,426.255z"
						/>
					<path style="clip-path:url(#SVGID_00000114765619682990174060000007676511404765143701_);fill:#222221;" d="M258.711,434.47
						c-0.328-3.644-0.274-7.582,1.796-10.599c0.66-0.962,1.674-1.859,2.836-1.751c1.654,0.153,2.431,2.151,2.476,3.811
						c0.08,3.003-1.006,5.947-0.928,8.95c0.052,1.993,0.616,3.987,0.306,5.956c-0.297,1.888-3.377,7.041-5.727,4.634
						c-0.936-0.958-0.258-3.314-0.254-4.462C259.223,438.821,258.907,436.643,258.711,434.47z"/>
					<path style="clip-path:url(#SVGID_00000114765619682990174060000007676511404765143701_);fill:#222221;" d="M273.177,405.552
						c-0.593,1.122-1.178,2.315-1.153,3.583c0.024,1.269,0.867,2.614,2.128,2.762c1.178,0.138,2.204-0.753,3.023-1.611
						c3.35-3.509,6.153-7.54,8.277-11.902c0.421-0.865,0.826-1.811,0.659-2.759c-0.668-3.798-4.619-2.907-6.275-0.829
						C277.238,398.057,275.12,401.878,273.177,405.552z"/>
					<path style="clip-path:url(#SVGID_00000114765619682990174060000007676511404765143701_);fill:#222221;" d="M252.181,407.163
						c-1.987,1.111-2.926,3.513-4.801,4.805c-1.687,1.163-3.924,1.285-5.622,2.432c-1.25,0.844-2.12,2.232-2.334,3.725
						c-0.158,1.102,0.065,2.316,0.844,3.112c0.506,0.518,1.205,0.819,1.918,0.944c1.874,0.329,3.778-0.488,5.314-1.61
						c1.536-1.122,2.826-2.551,4.335-3.71c1.57-1.206,3.371-2.109,5.276-2.645C265.48,411.862,257.621,404.121,252.181,407.163z"/>
					<path style="clip-path:url(#SVGID_00000114765619682990174060000007676511404765143701_);fill:#222221;" d="M232.194,434.24
						c2.374-1.09,5.148-1.21,7.381-2.565c1.281-0.777,2.311-1.922,3.611-2.668c1.299-0.746,3.093-0.994,4.198,0.018
						c1.261,1.155,0.944,3.215,0.305,4.801c-0.44,1.092-1.009,2.173-1.916,2.925c-1.398,1.158-3.333,1.341-5.038,1.965
						c-1.773,0.649-3.351,1.821-4.484,3.331c-1.339,1.783-2.257,4.175-4.367,4.895c-2.887,0.986-5.308-2.188-5.327-4.731
						C226.534,438.926,229.358,435.542,232.194,434.24z"/>
					<path style="clip-path:url(#SVGID_00000114765619682990174060000007676511404765143701_);fill:#222221;" d="M215.403,425.357
						c-3.382-0.84-6.429-7.316-1.865-8.639c2.9-0.84,7.221,1.314,9.965,2.302c1.685,0.607,3.234,1.588,4.504,2.851
						c1.451,1.443,2.531,3.806,1.336,5.467c-1.118,1.552-3.504,1.437-5.253,0.661c-1.748-0.776-3.316-2.047-5.203-2.358
						C217.736,425.452,216.536,425.638,215.403,425.357z"/>
					<path style="clip-path:url(#SVGID_00000114765619682990174060000007676511404765143701_);fill:#222221;" d="M226.985,400.056
						c-0.797,2.383-1.088,4.933-0.849,7.434c0.074,0.778,0.208,1.575,0.621,2.238c0.413,0.663,1.166,1.167,1.943,1.078
						c0.908-0.103,1.539-0.925,2.059-1.677c1.866-2.7,3.761-5.462,4.667-8.616c0.727-2.534,0.965-9.674-2.784-10.435
						C229.598,389.462,227.736,397.808,226.985,400.056z"/>
					<path style="clip-path:url(#SVGID_00000114765619682990174060000007676511404765143701_);fill:#222221;" d="M262.038,401.162
						c0.279,0.221,0.561,0.42,0.843,0.592c3.133,1.909,4.227-1.286,3.6-3.976c-0.942-4.039-5.244-10.368-9.909-10.083
						c-1.682,0.103-3.266,1.779-2.807,3.401c0.193,0.68,0.683,1.229,1.158,1.753C257.011,395.147,259.448,399.111,262.038,401.162z"
						/>
				</g>
			</g>
		</g>
		<g>
			<path style="fill:#FFFFFF;stroke:#222221;stroke-width:0.5;stroke-miterlimit:10;" d="M376.377,157.184H245.109
				c-2.797,0-5.064,2.267-5.064,5.064v50.446c0,2.797,2.267,5.064,5.064,5.064h17.594c-2.536,7.623-7.166,14.559-13.42,19.611
				c3.804,0.325,7.3-2.033,10.127-4.599c4.668-4.235,8.504-9.368,11.307-15.012h105.659c2.797,0,5.064-2.267,5.064-5.064v-50.446
				C381.441,159.451,379.174,157.184,376.377,157.184z"/>
			<g>
				<rect x="252.339" y="201.181" style="fill:#E0ADAD;" width="116.767" height="2.975"/>
				<rect x="252.339" y="207.359" style="fill:#E0ADAD;" width="71.685" height="2.975"/>
			</g>
			<g>
				
					<ellipse transform="matrix(0.2242 -0.9745 0.9745 0.2242 65.6906 440.9383)" style="fill:#E0ADAD;" cx="309.791" cy="179.21" rx="14.842" ry="14.842"/>
				<g>
					<path style="fill:none;stroke:#000000;stroke-width:0.5;stroke-linecap:round;stroke-miterlimit:10;" d="M308.925,187.396
						c-0.077,0.015-0.138,0.023-0.184,0.023c-0.046,0-0.092,0-0.138,0c-0.476,0-0.906-0.015-1.29-0.046
						c-0.384-0.031-0.741-0.077-1.071-0.138c-0.33-0.062-0.649-0.138-0.956-0.23c-0.307-0.092-0.622-0.192-0.944-0.299
						c0.03-0.337,0.096-0.679,0.196-1.025c0.1-0.346,0.211-0.679,0.334-1.002c0.522,0.169,1.06,0.319,1.612,0.449
						c0.553,0.131,1.22,0.196,2.004,0.196c1.259,0,2.196-0.245,2.81-0.737c0.614-0.491,0.921-1.167,0.921-2.027
						c0-0.43-0.066-0.791-0.196-1.083c-0.131-0.292-0.327-0.545-0.588-0.76c-0.261-0.215-0.591-0.411-0.99-0.587
						c-0.399-0.176-0.868-0.38-1.405-0.61l-1.105-0.461c-0.461-0.184-0.883-0.392-1.267-0.622c-0.384-0.23-0.718-0.503-1.002-0.818
						c-0.284-0.314-0.503-0.687-0.656-1.117c-0.154-0.43-0.23-0.944-0.23-1.543c0-1.182,0.357-2.15,1.071-2.902
						c0.714-0.752,1.739-1.221,3.075-1.405v-2.234c0.23-0.061,0.491-0.092,0.783-0.092c0.307,0,0.583,0.031,0.829,0.092v2.142
						c0.645,0.031,1.279,0.1,1.9,0.207c0.622,0.108,1.155,0.246,1.601,0.415c-0.077,0.645-0.246,1.282-0.507,1.912
						c-0.415-0.153-0.891-0.288-1.428-0.403c-0.538-0.115-1.159-0.173-1.866-0.173c-0.967,0-1.712,0.184-2.234,0.553
						c-0.522,0.368-0.783,0.937-0.783,1.704c0,0.368,0.069,0.687,0.207,0.956c0.138,0.269,0.342,0.507,0.611,0.714
						c0.268,0.207,0.591,0.396,0.967,0.564c0.376,0.169,0.802,0.353,1.278,0.553l0.875,0.368c0.553,0.23,1.051,0.469,1.497,0.714
						c0.445,0.246,0.825,0.538,1.14,0.875c0.315,0.338,0.56,0.737,0.737,1.198c0.176,0.461,0.265,1.021,0.265,1.681
						c0,1.305-0.372,2.369-1.117,3.19c-0.745,0.822-1.793,1.363-3.144,1.624v2.648c-0.123,0.031-0.253,0.054-0.392,0.069
						c-0.138,0.015-0.269,0.023-0.391,0.023c-0.138,0-0.277-0.008-0.415-0.023c-0.138-0.015-0.276-0.038-0.414-0.069V187.396z"/>
				</g>
			</g>
			
				<line style="fill:none;stroke:#000000;stroke-width:0.5;stroke-linecap:round;stroke-miterlimit:10;" x1="335.753" y1="172.365" x2="342.832" y2="169.257"/>
			
				<line style="fill:none;stroke:#000000;stroke-width:0.5;stroke-linecap:round;stroke-miterlimit:10;" x1="335.753" y1="179.271" x2="343.695" y2="180.307"/>
			
				<line style="fill:none;stroke:#000000;stroke-width:0.5;stroke-linecap:round;stroke-miterlimit:10;" x1="333.681" y1="185.833" x2="338.515" y2="190.667"/>
			
				<line style="fill:none;stroke:#000000;stroke-width:0.5;stroke-linecap:round;stroke-miterlimit:10;" x1="283.623" y1="172.365" x2="276.544" y2="169.257"/>
			
				<line style="fill:none;stroke:#000000;stroke-width:0.5;stroke-linecap:round;stroke-miterlimit:10;" x1="283.623" y1="179.271" x2="275.681" y2="180.307"/>
			
				<line style="fill:none;stroke:#000000;stroke-width:0.5;stroke-linecap:round;stroke-miterlimit:10;" x1="285.695" y1="185.833" x2="280.861" y2="190.667"/>
		</g>
		<g>
			<path style="fill:#FFFFFF;stroke:#222221;stroke-width:0.5;stroke-miterlimit:10;" d="M423.529,74.62H294.945
				c-3.538,0-6.406,2.868-6.406,6.406v40.125c0,3.542,2.874,6.411,6.416,6.406l107.876-0.173c4.797,9.877,5.657,24.101,1.878,35.399
				c5.152-10.907,7.056-23.147,6.736-35.216h12.085c3.538,0,6.406-2.868,6.406-6.406V81.026
				C429.935,77.488,427.067,74.62,423.529,74.62z"/>
			<g>
				<g>
					<polygon style="fill:#FFFFFF;stroke:#0F005D;stroke-width:0.5;stroke-miterlimit:10;" points="367.133,120.662 
						301.775,120.662 301.775,82.379 301.776,82.379 367.133,82.379 367.133,120.662 					"/>
					<rect x="301.775" y="111.091" style="fill:#050504;" width="65.358" height="4.466"/>
					<path style="fill:#FFFFFF;stroke:#0F005D;stroke-width:0.5;stroke-miterlimit:10;" d="M315.016,92.546h-8.719
						c-0.164,0-0.297-0.133-0.297-0.297v-5.521c0-0.164,0.133-0.297,0.297-0.297h8.719c0.164,0,0.297,0.133,0.297,0.297v5.521
						C315.313,92.413,315.18,92.546,315.016,92.546z"/>
					<path style="fill:#DEA600;stroke:#000000;stroke-width:0.5;stroke-miterlimit:10;" d="M356.709,90.586
						c0,2.295-1.86,4.155-4.155,4.155s-4.155-1.86-4.155-4.155c0-2.295,1.86-4.155,4.155-4.155S356.709,88.291,356.709,90.586z"/>
					<path style="fill:#F65E59;stroke:#000000;stroke-width:0.5;stroke-miterlimit:10;" d="M362.348,90.586
						c0,2.295-1.861,4.155-4.155,4.155c-2.295,0-4.155-1.86-4.155-4.155c0-2.295,1.86-4.155,4.155-4.155
						C360.488,86.431,362.348,88.291,362.348,90.586z"/>
					<polyline style="fill:none;stroke:#323232;stroke-width:0.5;stroke-miterlimit:10;" points="301.775,108.089 307.325,104.205 
						312.993,108.089 318.974,104.205 323.792,108.089 329.034,104.205 334.267,108.089 339.372,104.205 344.522,108.089 
						350.337,104.205 355.645,108.089 361.121,104.205 367.133,108.089 					"/>
					<polyline style="fill:none;stroke:#323232;stroke-width:0.5;stroke-miterlimit:10;" points="301.775,105.405 307.325,101.521 
						312.993,105.405 318.974,101.521 323.792,105.405 329.034,101.521 334.267,105.405 339.372,101.521 344.522,105.405 
						350.337,101.521 355.645,105.405 361.121,101.521 367.133,105.405 					"/>
				</g>
				<g>
					
						<ellipse transform="matrix(0.1643 -0.9864 0.9864 0.1643 232.8371 477.8599)" style="fill:#E0ADAD;" cx="398.428" cy="101.521" rx="14.842" ry="14.842"/>
					<g>
						<path style="fill:none;stroke:#000000;stroke-width:0.5;stroke-linecap:round;stroke-miterlimit:10;" d="M397.562,109.707
							c-0.077,0.015-0.138,0.023-0.184,0.023c-0.046,0-0.092,0-0.138,0c-0.476,0-0.906-0.015-1.29-0.046
							c-0.384-0.031-0.741-0.077-1.071-0.138c-0.33-0.062-0.649-0.138-0.956-0.23c-0.307-0.092-0.622-0.192-0.944-0.299
							c0.031-0.337,0.096-0.679,0.196-1.025c0.1-0.345,0.211-0.679,0.334-1.002c0.522,0.169,1.06,0.319,1.612,0.449
							c0.553,0.131,1.221,0.196,2.004,0.196c1.259,0,2.196-0.245,2.81-0.737c0.614-0.491,0.921-1.167,0.921-2.027
							c0-0.43-0.066-0.791-0.196-1.083c-0.131-0.292-0.327-0.545-0.588-0.76c-0.261-0.215-0.591-0.411-0.99-0.587
							c-0.399-0.176-0.867-0.38-1.405-0.61l-1.105-0.461c-0.46-0.184-0.883-0.392-1.267-0.622c-0.384-0.23-0.718-0.503-1.002-0.818
							c-0.284-0.315-0.503-0.687-0.656-1.117c-0.154-0.43-0.23-0.944-0.23-1.543c0-1.182,0.357-2.15,1.071-2.902
							c0.714-0.752,1.739-1.221,3.075-1.405v-2.234c0.23-0.061,0.491-0.092,0.783-0.092c0.307,0,0.583,0.031,0.829,0.092v2.142
							c0.645,0.031,1.279,0.1,1.9,0.207c0.622,0.108,1.155,0.246,1.601,0.415c-0.077,0.645-0.246,1.282-0.507,1.912
							c-0.415-0.153-0.891-0.288-1.428-0.403c-0.538-0.115-1.16-0.173-1.866-0.173c-0.967,0-1.712,0.184-2.234,0.553
							c-0.522,0.369-0.783,0.937-0.783,1.705c0,0.368,0.069,0.687,0.207,0.956c0.138,0.269,0.341,0.507,0.61,0.714
							c0.268,0.207,0.591,0.395,0.967,0.564c0.376,0.169,0.802,0.354,1.278,0.553l0.875,0.368c0.553,0.23,1.051,0.469,1.497,0.714
							c0.445,0.246,0.825,0.538,1.14,0.875c0.315,0.338,0.56,0.737,0.737,1.198c0.176,0.461,0.265,1.021,0.265,1.681
							c0,1.305-0.372,2.369-1.117,3.19c-0.745,0.822-1.793,1.363-3.144,1.624v2.649c-0.123,0.031-0.253,0.054-0.392,0.069
							c-0.138,0.015-0.269,0.023-0.391,0.023c-0.138,0-0.276-0.008-0.415-0.023c-0.138-0.015-0.276-0.038-0.414-0.069V109.707z"/>
					</g>
				</g>
			</g>
		</g>
		<g>
			<g>
				<g>
					<g>
						<path style="fill:#F65E59;stroke:#000000;stroke-width:0.5;stroke-miterlimit:10;" d="M74.011,338.901
							c2.152-5.583,3.517-11.471,6.249-16.821c0.221-0.432,0.454-0.866,0.796-1.21c0.359-0.362,0.818-0.606,1.271-0.84
							c2.764-1.423,5.616-2.675,8.535-3.745c1.428-0.524,2.872-1.005,4.329-1.441c0.609-0.182,3.029-1.273,3.538-0.779
							c5.15,4.989,15.341,14.523,12.246,22.487c-0.849,2.184-2.73,4.03-5.029,4.478c-5.057,0.984-9.189-3.157-12.12-6.703
							c-1.155-1.398-2.301-2.833-3.312-4.338c-0.748,1.935-1.799,3.697-2.627,5.596c-1.036,2.35-2.238,4.626-3.59,6.809
							c-2.673,4.315-5.938,8.265-9.685,11.691c-0.807,0.738-1.732,1.491-2.825,1.517c-5.008,0.119-2.387-6.435-1.394-8.802
							c0.972-2.315,2.241-4.498,3.189-6.818C73.729,339.622,73.872,339.263,74.011,338.901z"/>
						<path style="fill:#DEA600;stroke:#000000;stroke-width:0.5;stroke-miterlimit:10;" d="M55.783,368.707
							c-0.102-0.156-0.194-0.317-0.274-0.482c-1.545-3.163-1.739-7.355-2.989-10.735c-1.472-3.981-3.383-7.779-5.115-11.649
							c-3.108-6.94-6.709-13.644-10.276-20.354c-2.775-5.22-6.631-12.374-5.27-18.513c0.616-2.776,2.468-5.331,5.079-6.457
							c2.907-1.253,6.363-0.611,9.104,0.974c2.741,1.584,4.889,4.005,6.886,6.462c1.456,1.792,2.87,3.643,3.886,5.716
							c1.753,3.575,2.242,7.617,2.705,11.572c1.171,9.996,2.895,20.045,3.059,30.079c0.069,4.226,0.984,9.98-1.472,13.781
							c-0.494,0.764-1.341,1.307-2.249,1.37C57.616,370.557,56.471,369.761,55.783,368.707z"/>
						<path style="fill:none;stroke:#000000;stroke-width:0.5;stroke-miterlimit:10;" d="M77.562,340.748
							c-4.496,6.789-7.962,14.907-8.748,23.049c-0.815,8.449,0.875,17.284-2.981,25.22"/>
						<path style="fill:none;stroke:#000000;stroke-width:0.5;stroke-miterlimit:10;" d="M54.377,343.846
							c1.181,5.186,2.361,10.372,3.542,15.557c0.612,2.688,1.228,5.414,1.118,8.169c-0.093,2.327-0.7,4.599-1.101,6.893
							c-1.193,6.834-0.518,13.984,1.932,20.474"/>
						<path style="fill:#9DD1C9;stroke:#000000;stroke-width:0.5;stroke-miterlimit:10;" d="M90.222,274.46
							c-0.693-3.87-3.226-7.517-6.995-8.449c-9.384-2.32-16.578,6.597-19.986,14.021c-3.314,7.221-4.986,15.696-4.153,23.631
							c0.366,3.485,1.649,7.286,1.388,10.759c-0.32,4.247-2.052,8.26-3.199,12.319c-1.269,4.495-1.389,9.385-0.503,13.957
							c0.328,1.692,1.234,3.355,2.743,4.186c1.509,0.831,3.655,0.581,4.649-0.827c2.115,0.721,4.687-0.369,5.639-2.391
							c0.76-1.613,0.524-3.489,0.474-5.271c-0.166-5.89,1.963-10.713,5.317-15.335c3.323-4.58,2.977-11.548,4.23-16.903
							c2.24-9.568,10.889-17.848,10.581-27.924C90.39,275.643,90.327,275.049,90.222,274.46z"/>
						<path style="fill:none;stroke:#000000;stroke-width:0.5;stroke-miterlimit:10;" d="M59.302,393.087
							c1.544-2.854,3.104-5.75,3.851-8.907c0.514-2.174,0.629-4.421,0.742-6.652c0.079-1.551-0.064-1.97,0.256-3.49
							c1.787-8.481,3.562-17.388,1.09-25.696c-1.185-3.982-3.329-7.737-3.629-11.881c-0.41-5.671,2.675-10.938,5.651-15.783"/>
						<path d="M61.061,410.126L61.061,410.126c5.795,0,10.78-3.964,11.893-9.454c0.312-1.537,0.559-2.76,0.734-3.532l1.552-12.961
							H46.296l2.129,12.349c0.148,0.862,0.387,2.233,0.705,3.95C50.165,406.059,55.187,410.126,61.061,410.126z"/>
					</g>
				</g>
				<path style="fill:none;stroke:#000000;stroke-width:0.5;stroke-miterlimit:10;" d="M90.514,329.988
					c2.35-4.586,4.614-9.198,6.964-13.785"/>
			</g>
		</g>
		
			<line style="fill:none;stroke:#222221;stroke-width:0.5;stroke-miterlimit:10;" x1="42.786" y1="409.19" x2="103.742" y2="409.19"/>
		
			<line style="fill:none;stroke:#222221;stroke-width:0.5;stroke-miterlimit:10;" x1="186.709" y1="437.974" x2="329.785" y2="437.974"/>
		
			<line style="fill:none;stroke:#222221;stroke-width:0.5;stroke-miterlimit:10;" x1="323.859" y1="393.104" x2="444.923" y2="393.104"/>
		
			<line style="fill:none;stroke:#222221;stroke-width:0.5;stroke-miterlimit:10;" x1="58.307" y1="387.178" x2="179.372" y2="387.178"/>
		<path style="fill:none;stroke:#222221;stroke-width:0.5;stroke-miterlimit:10;" d="M228.912,250.024
			c-1.793-2.812-4.253-5.807-6.14-7.971c-1.333-1.528-3.656-1.477-5.027,0.017c-0.009,0.009-0.017,0.019-0.026,0.028"/>
		<path style="fill:#FFFFFF;stroke:#222221;stroke-width:0.5;stroke-miterlimit:10;" d="M215.425,236.483
			c0.477,1.391,1.94,2.146,3.272,2.771c1.045,0.49,2.224,1.058,2.879,2.056c1.169,1.783-1.127,1.573-2.173,1.459
			c-1.947-0.212-3.802-0.792-5.793-0.576"/>
		<path style="fill:#E0ADAD;" d="M212.959,193.063c-1.294-2.295-4.025-3.54-6.659-3.532c-1.352,0.004-2.675,0.3-3.938,0.784
			c0.332,6.498,0.49,13.008,0.743,19.51c0.529-0.454,1.066-0.902,1.617-1.34c2.501-1.99,5.203-3.829,7.071-6.423
			C213.66,199.469,214.528,195.847,212.959,193.063z"/>
	</g>
</g>
</svg>
